<svg width="64" height="64" viewBox="0 0 64 64" fill="none" xmlns="http://www.w3.org/2000/svg">
<rect width="64" height="64" rx="5" fill="url(#paint0_linear_17_156)"/>
<g clip-path="url(#clip0_17_156)">
<path d="M33.6051 33.9502L33.6055 33.9496C33.5833 33.9668 33.5609 33.9808 33.5386 33.997C33.5233 34.008 33.5075 34.0189 33.4924 34.0298C31.3459 35.5364 29.0956 32.9538 29.0956 32.9538L29.097 32.9561C27.6467 31.198 25.2297 29.3099 21.3937 28.8991C21.3937 28.8991 22.292 35.5267 25.7474 37.3147C27.0978 38.0135 28.244 37.9292 29.118 37.5992C29.2979 37.5454 29.4692 37.4673 29.6267 37.3672C29.666 37.346 29.7045 37.3245 29.7422 37.3026C30.5528 36.8545 30.984 36.8095 31.0126 36.807C31.7453 36.757 32.4778 36.9062 33.1279 37.2378L33.1264 37.2358C33.7613 37.6164 34.668 37.9021 35.9368 37.8094C39.8298 37.525 41.0779 31.8755 41.0779 31.8755C37.2858 32.0102 34.9723 32.9963 33.6051 33.9502Z" fill="#D9E1FF"/>
<path style="mix-blend-mode:soft-light" d="M33.6051 33.9502L33.6055 33.9496C33.5833 33.9668 33.5609 33.9808 33.5386 33.997C33.5233 34.008 33.5075 34.0189 33.4924 34.0298C31.3459 35.5364 29.0956 32.9538 29.0956 32.9538L29.097 32.9561C27.6467 31.198 25.2297 29.3099 21.3937 28.8991C21.3937 28.8991 22.292 35.5267 25.7474 37.3147C27.0978 38.0135 28.244 37.9292 29.118 37.5992C29.2979 37.5454 29.4692 37.4673 29.6267 37.3672C29.666 37.346 29.7045 37.3245 29.7422 37.3026C30.5528 36.8545 30.984 36.8095 31.0126 36.807C31.7453 36.757 32.4778 36.9062 33.1279 37.2378L33.1264 37.2358C33.7613 37.6164 34.668 37.9021 35.9368 37.8094C39.8298 37.525 41.0779 31.8755 41.0779 31.8755C37.2858 32.0102 34.9723 32.9963 33.6051 33.9502Z" fill="url(#paint1_linear_17_156)"/>
<path d="M30.379 35.7774C30.379 35.7774 27.5305 31.7534 23.1537 30.9816C23.1537 30.9816 23.9874 35.2813 26.7663 36.4941C29.5453 37.7068 30.379 35.7774 30.379 35.7774Z" fill="#D9E1FF"/>
<path d="M32.4631 35.8172C34.4567 34.284 36.875 33.3608 39.4105 33.1649C39.4105 33.1649 37.6968 36.7163 35.4273 36.941C33.1579 37.1658 32.4631 35.8172 32.4631 35.8172Z" fill="#D9E1FF"/>
<path d="M32.2816 32.7834C28.7836 33.1629 15.587 28.1401 10 22.3903C10 22.3903 18.2442 26.0765 21.6497 24.2801C23.2923 23.4137 26.3355 12.5375 26.3355 12.5375C26.3355 12.5375 27.2871 9.69451 29.3568 10.0271C30.4686 10.2057 32.2829 13.9143 33.2742 14.8051C34.2654 15.6959 35.4369 14.4002 36.1578 14.2382C36.8787 14.0762 39.0584 19.6032 40.8606 24.2193C40.8606 24.2193 44.6009 26.4057 54 22.7415C54 22.7415 41.3843 31.7959 32.2816 32.7834Z" fill="#D9E1FF"/>
<path style="mix-blend-mode:soft-light" d="M32.2816 32.7834C28.7836 33.1629 15.587 28.1401 10 22.3903C10 22.3903 18.2442 26.0765 21.6497 24.2801C23.2923 23.4137 26.3355 12.5375 26.3355 12.5375C26.3355 12.5375 27.2871 9.69451 29.3568 10.0271C30.4686 10.2057 32.2829 13.9143 33.2742 14.8051C34.2654 15.6959 35.4369 14.4002 36.1578 14.2382C36.8787 14.0762 39.0584 19.6032 40.8606 24.2193C40.8606 24.2193 44.6009 26.4057 54 22.7415C54 22.7415 41.3843 31.7959 32.2816 32.7834Z" fill="url(#paint2_linear_17_156)"/>
<path d="M22.3895 35.1261C22.3895 35.1261 25.0295 37.751 26.7664 38.758C28.5032 39.7649 29.8907 37.8446 31.3506 37.827C32.8106 37.8094 34.9643 39.4952 35.9369 39.63C36.9095 39.7649 39.9664 36.4784 40.7306 34.8513C40.7306 34.8513 37.7114 44.5316 31.5601 48.6486C31.5601 48.6486 27.2527 47.536 22.3895 35.1261Z" fill="#D9E1FF"/>
<path style="mix-blend-mode:soft-light" d="M22.3895 35.1261C22.3895 35.1261 25.0295 37.751 26.7664 38.758C28.5032 39.7649 29.8907 37.8446 31.3506 37.827C32.8106 37.8094 34.9643 39.4952 35.9369 39.63C36.9095 39.7649 39.9664 36.4784 40.7306 34.8513C40.7306 34.8513 37.7114 44.5316 31.5601 48.6486C31.5601 48.6486 27.2527 47.536 22.3895 35.1261Z" fill="url(#paint3_linear_17_156)"/>
<path d="M19.5825 33.33C19.5825 33.33 14.4694 34.7823 10.9263 40.3116L18.4294 45.8824C18.4294 45.8824 15.6505 47.4775 14.7473 49.2216L24.5431 54L17.0863 48.8581C17.0863 48.8581 18.0871 47.1231 21.6703 45.5533L13.9602 39.9156C13.9602 39.9156 15.5937 36.7929 20.5881 35.0608L20.0968 33.1633C19.6641 33.2954 19.5825 33.33 19.5825 33.33Z" fill="#D9E1FF"/>
<path style="mix-blend-mode:soft-light" d="M19.5825 33.33C19.5825 33.33 14.4694 34.7823 10.9263 40.3116L18.4294 45.8824C18.4294 45.8824 15.6505 47.4775 14.7473 49.2216L24.5431 54L17.0863 48.8581C17.0863 48.8581 18.0871 47.1231 21.6703 45.5533L13.9602 39.9156C13.9602 39.9156 15.5937 36.7929 20.5881 35.0608L20.0968 33.1633C19.6641 33.2954 19.5825 33.33 19.5825 33.33Z" fill="url(#paint4_linear_17_156)"/>
<path d="M42.7095 33.33C42.7095 33.33 47.8226 34.7823 51.3658 40.3116L43.8626 45.8824C43.8626 45.8824 46.6415 47.4775 47.5447 49.2216L37.7489 54L45.2057 48.8581C45.2057 48.8581 44.2049 47.1231 40.6217 45.5533L48.3318 39.9156C48.3318 39.9156 46.6983 36.7929 41.7039 35.0608L42.1952 33.1633C42.6279 33.2954 42.7095 33.33 42.7095 33.33Z" fill="#D9E1FF"/>
<path style="mix-blend-mode:soft-light" d="M42.7095 33.33C42.7095 33.33 47.8226 34.7823 51.3658 40.3116L43.8626 45.8824C43.8626 45.8824 46.6415 47.4775 47.5447 49.2216L37.7489 54L45.2057 48.8581C45.2057 48.8581 44.2049 47.1231 40.6217 45.5533L48.3318 39.9156C48.3318 39.9156 46.6983 36.7929 41.7039 35.0608L42.1952 33.1633C42.6279 33.2954 42.7095 33.33 42.7095 33.33Z" fill="url(#paint5_linear_17_156)"/>
<g style="mix-blend-mode:soft-light">
<path d="M28.4797 10.6173C28.4797 10.6173 27.8748 10.5505 26.9642 12.6531C25.9789 14.928 24.0335 22.3257 22.7583 23.9983C21.483 25.671 17.7607 24.9685 16.8301 24.8346C16.8301 24.8346 20.1219 26.5902 22.3894 27.1385L20.3112 25.8717L22.2413 26.2062L21.3936 25.6375C21.9049 25.6029 22.3981 25.4398 22.8247 25.1641C23.2513 24.8884 23.5966 24.5097 23.8267 24.0652C24.6195 22.5264 27.7214 11.5205 28.4797 10.6173Z" fill="#D9E1FF"/>
</g>
<g style="mix-blend-mode:soft-light" opacity="0.32">
<path d="M35.8674 14.6302C35.9635 14.5884 36.0708 14.5773 36.1738 14.5985C36.2768 14.6198 36.3702 14.6721 36.4406 14.7482C36.6664 15.0179 40.2095 23.767 40.418 24.1548C40.6264 24.5425 43.3185 26.1608 46.7053 25.4359C46.7053 25.4359 44.4127 26.6665 43.3359 27.1385C43.3359 27.1385 40.5916 26.3294 39.619 24.3065C38.6464 22.2835 35.8674 14.6302 35.8674 14.6302Z" fill="#D9E1FF"/>
</g>
<g style="mix-blend-mode:soft-light" opacity="0.32">
<path d="M34.1913 15.2792C34.427 15.2555 34.6549 15.1837 34.86 15.0685C35.1031 14.8999 35.4245 14.706 35.5373 14.7229L35.6415 15.0432C35.6415 15.0432 34.9034 15.5321 34.1913 15.2792Z" fill="#D9E1FF"/>
</g>
<g style="mix-blend-mode:soft-light">
<path d="M27.2526 39.2592C27.2526 39.2592 24.3694 37.6071 22.98 36.0225C22.98 36.0225 25.7225 43.0823 28.4797 45.7999C26.954 43.7916 25.766 41.5612 24.96 39.1917L26.1964 40.0684L24.9252 38.3489C24.9252 38.3489 26.28 38.9557 27.2526 39.2592Z" fill="#D9E1FF"/>
</g>
<g style="mix-blend-mode:soft-light" opacity="0.32">
<path d="M37.6094 39.06C37.6094 39.06 39.4966 37.1591 39.9129 36.5758C39.9129 36.5758 37.6379 42.455 34.4812 45.6845C34.4812 45.6845 36.8719 42.677 37.7488 39.5935C37.4361 39.574 37.1222 39.5895 36.8131 39.6396C37.1074 39.4869 37.376 39.2914 37.6094 39.06Z" fill="#D9E1FF"/>
</g>
<g style="mix-blend-mode:soft-light" opacity="0.32">
<path d="M38.1948 35.2471L39.0284 35.8877C38.5315 36.6492 37.7789 37.2208 36.8979 37.506L36.6432 36.6743C36.6432 36.6743 37.7434 36.0415 38.1948 35.2471Z" fill="#D9E1FF"/>
</g>
<g style="mix-blend-mode:soft-light">
<path d="M24.3809 34.4847L23.5607 34.8513C23.5607 34.8513 24.3271 36.5076 25.9407 37.2124L26.3979 36.4815C26.3979 36.4815 25.3087 36.2727 24.3809 34.4847Z" fill="#D9E1FF"/>
</g>
<g style="mix-blend-mode:soft-light">
<path d="M28.6682 33.772L29.2673 33.2447C29.2673 33.2447 28.5456 32.3593 28.2774 32.2296L27.765 33.0008C27.765 33.0008 28.3903 33.5529 28.6682 33.772Z" fill="#D9E1FF"/>
</g>
<g style="mix-blend-mode:soft-light" opacity="0.32">
<path d="M37.4126 33.3729L37.5204 32.4266C37.5204 32.4266 36.8026 32.6229 36.095 32.8036L36.4463 33.5892C36.4463 33.5892 37.3527 33.3891 37.4126 33.3729Z" fill="#D9E1FF"/>
</g>
<g style="mix-blend-mode:soft-light">
<path d="M16.3684 35.1261C16.3684 35.1261 13.1263 37.1801 11.3431 40.2369L18.8 45.946C18.8 45.946 16.461 46.935 15.0716 49.1602L18.1979 50.6662L15.6737 49.0703C15.6737 49.0703 16.6694 47.1373 19.7726 45.9011L11.9916 40.147C12.4819 39.2721 13.0808 38.4588 13.7747 37.7251C14.4177 37.0703 16.3684 35.1261 16.3684 35.1261Z" fill="#D9E1FF"/>
</g>
<g style="mix-blend-mode:soft-light" opacity="0.32">
<path d="M45.8947 35.1261C45.8947 35.1261 49.1368 37.1801 50.92 40.2369L43.4631 45.946C43.4631 45.946 45.8021 46.935 47.1915 49.1602L44.0652 50.6662L46.5894 49.0703C46.5894 49.0703 45.5936 47.1373 42.4905 45.9011L50.2715 40.147C49.7811 39.2721 49.1823 38.4588 48.4884 37.7251C47.8454 37.0703 45.8947 35.1261 45.8947 35.1261Z" fill="#D9E1FF"/>
</g>
</g>
<defs>
<linearGradient id="paint0_linear_17_156" x1="2" y1="2.66667" x2="62.6667" y2="64" gradientUnits="userSpaceOnUse">
<stop stop-color="#0052D4"/>
<stop offset="0.5" stop-color="#4364F7"/>
<stop offset="1" stop-color="#6FB1FC"/>
</linearGradient>
<linearGradient id="paint1_linear_17_156" x1="21.3937" y1="33.3728" x2="41.0779" y2="33.3728" gradientUnits="userSpaceOnUse">
<stop stop-color="white"/>
<stop offset="1"/>
</linearGradient>
<linearGradient id="paint2_linear_17_156" x1="10" y1="21.4018" x2="54" y2="21.4018" gradientUnits="userSpaceOnUse">
<stop stop-color="white"/>
<stop offset="1"/>
</linearGradient>
<linearGradient id="paint3_linear_17_156" x1="22.3895" y1="41.7499" x2="40.7306" y2="41.7499" gradientUnits="userSpaceOnUse">
<stop stop-color="white"/>
<stop offset="1"/>
</linearGradient>
<linearGradient id="paint4_linear_17_156" x1="10.9263" y1="43.5817" x2="24.5431" y2="43.5817" gradientUnits="userSpaceOnUse">
<stop stop-color="white"/>
<stop offset="1"/>
</linearGradient>
<linearGradient id="paint5_linear_17_156" x1="52.5734" y1="47.5" x2="33.5999" y2="41.2369" gradientUnits="userSpaceOnUse">
<stop stop-color="white"/>
<stop offset="1"/>
</linearGradient>
<clipPath id="clip0_17_156">
<rect width="44" height="44" fill="white" transform="translate(10 10)"/>
</clipPath>
</defs>
</svg>
