<svg xmlns="http://www.w3.org/2000/svg" width="30" height="30" fill="none"><rect width="30" height="30" fill="#118DFF" rx="4"/><path fill="#fff" d="M22 10.5A2.5 2.5 0 0 0 19.5 8h-9A2.5 2.5 0 0 0 8 10.5v9a2.5 2.5 0 0 0 2.5 2.5h4.1a5.465 5.465 0 0 1-.393-1H10.5A1.5 1.5 0 0 1 9 19.5V12h12v2.207c.349.099.683.23 1 .393v-4.1ZM10.5 9h9a1.5 1.5 0 0 1 1.5 1.5v.5H9v-.5A1.5 1.5 0 0 1 10.5 9ZM24 19.5a4.5 4.5 0 1 1-9 0 4.5 4.5 0 0 1 9 0Zm-5.12-3a.5.5 0 0 0-.472.334l-.88 2.5A.5.5 0 0 0 18 20h.776l-.508 1.869a.5.5 0 0 0 .903.401l2.25-3.5A.5.5 0 0 0 21 18h-.746l.28-.842a.5.5 0 0 0-.474-.658h-1.18Z"/></svg>