<svg xmlns="http://www.w3.org/2000/svg" width="16" height="16" fill="none"><path fill="#118DFF" d="M13.776 6.95a1.198 1.198 0 0 1 0 2.1l-4.184 2.301a4.394 4.394 0 0 0-.128-.841l3.926-2.16a.4.4 0 0 0 0-.7l-7.998-4.4a.4.4 0 0 0-.594.35v3.618c-.27.024-.538.074-.8.148V3.6a1.2 1.2 0 0 1 1.78-1.05l7.997 4.399h.001ZM3.252 9.154a1.6 1.6 0 0 1-1.144 1.982l-.37.094c-.026.27-.024.543.008.813l.28.067a1.6 1.6 0 0 1 1.165 2.015l-.101.337c.206.164.43.303.668.415l.26-.275a1.6 1.6 0 0 1 2.328.001l.27.287c.233-.108.454-.242.657-.399l-.125-.445a1.6 1.6 0 0 1 1.144-1.983l.368-.093a3.76 3.76 0 0 0-.008-.814l-.278-.066a1.6 1.6 0 0 1-1.165-2.016l.1-.336a3.454 3.454 0 0 0-.667-.416l-.26.276a1.6 1.6 0 0 1-2.328-.001l-.27-.287a3.453 3.453 0 0 0-.657.398l.125.446ZM5.199 12.4a.8.8 0 1 1 0-1.6.8.8 0 0 1 0 1.6Z"/></svg>