<svg width="20" height="20" fill="none" xmlns="http://www.w3.org/2000/svg"><path d="M17.22 8.687a1.499 1.499 0 0 1 0 2.626l-5.23 2.876a5.5 5.5 0 0 0-.16-1.052l4.908-2.7a.5.5 0 0 0 0-.875L6.74 4.063a.5.5 0 0 0-.742.438v4.521a5.48 5.48 0 0 0-1 .185V4.501a1.5 1.5 0 0 1 2.224-1.313l9.997 5.499h.001ZM4.065 11.442a2 2 0 0 1-1.43 2.478l-.462.118a4.71 4.71 0 0 0 .01 1.016l.35.083a2 2 0 0 1 1.456 2.519l-.127.422c.258.204.537.378.835.518l.325-.344a2 2 0 0 1 2.91.002l.337.358c.292-.135.568-.302.822-.498l-.156-.556a2 2 0 0 1 1.43-2.479l.46-.117c.034-.338.03-.68-.01-1.017l-.348-.082a2 2 0 0 1-1.456-2.52l.126-.421a4.317 4.317 0 0 0-.835-.519l-.325.344a2 2 0 0 1-2.91-.001l-.337-.358a4.313 4.313 0 0 0-.821.497l.156.557ZM6.499 15.5a1 1 0 1 1 0-2 1 1 0 0 1 0 2Z" fill="#000"/></svg>