<svg width="24" height="24" viewBox="0 0 24 24" fill="none" xmlns="http://www.w3.org/2000/svg">
<path d="M5.9999 7.20002C5.9999 5.92699 6.50561 4.70609 7.40579 3.80591C8.30596 2.90574 9.52686 2.40002 10.7999 2.40002C12.0729 2.40002 13.2938 2.90574 14.194 3.80591C15.0942 4.70609 15.5999 5.92699 15.5999 7.20002C15.5999 8.47306 15.0942 9.69396 14.194 10.5941C13.2938 11.4943 12.0729 12 10.7999 12C9.52686 12 8.30596 11.4943 7.40579 10.5941C6.50561 9.69396 5.9999 8.47306 5.9999 7.20002ZM10.7999 3.60002C9.84512 3.60002 8.92945 3.97931 8.25432 4.65444C7.57919 5.32957 7.1999 6.24524 7.1999 7.20002C7.1999 8.1548 7.57919 9.07048 8.25432 9.74561C8.92945 10.4207 9.84512 10.8 10.7999 10.8C11.7547 10.8 12.6704 10.4207 13.3455 9.74561C14.0206 9.07048 14.3999 8.1548 14.3999 7.20002C14.3999 6.24524 14.0206 5.32957 13.3455 4.65444C12.6704 3.97931 11.7547 3.60002 10.7999 3.60002ZM2.3999 15.6C2.3999 14.2644 3.4835 13.2 4.8107 13.2H12.3083C12.0027 13.5702 11.7383 13.9726 11.5199 14.4H4.8107C4.1375 14.4 3.5999 14.9364 3.5999 15.6C3.5999 17.1708 4.3463 18.3408 5.6075 19.1436C6.8915 19.9632 8.7179 20.4 10.7999 20.4C11.0399 20.4 11.2775 20.394 11.5103 20.382C11.7179 20.7924 11.9675 21.1764 12.2519 21.5316C11.7779 21.5772 11.2919 21.6 10.7999 21.6C8.5739 21.6 6.5003 21.1368 4.9619 20.1564C3.3995 19.1604 2.3999 17.628 2.3999 15.6ZM22.7999 17.4C22.7999 18.8322 22.231 20.2057 21.2183 21.2184C20.2056 22.2311 18.8321 22.8 17.3999 22.8C15.9677 22.8 14.5942 22.2311 13.5815 21.2184C12.5688 20.2057 11.9999 18.8322 11.9999 17.4C11.9999 15.9679 12.5688 14.5943 13.5815 13.5816C14.5942 12.569 15.9677 12 17.3999 12C18.8321 12 20.2056 12.569 21.2183 13.5816C22.231 14.5943 22.7999 15.9679 22.7999 17.4ZM19.6247 16.0248C19.7374 15.9122 19.8007 15.7594 19.8007 15.6C19.8007 15.4407 19.7374 15.2879 19.6247 15.1752C19.512 15.0626 19.3592 14.9993 19.1999 14.9993C19.0406 14.9993 18.8878 15.0626 18.7751 15.1752L17.3999 16.5516L16.0247 15.1752C15.912 15.0626 15.7592 14.9993 15.5999 14.9993C15.4406 14.9993 15.2878 15.0626 15.1751 15.1752C15.0624 15.2879 14.9991 15.4407 14.9991 15.6C14.9991 15.7594 15.0624 15.9122 15.1751 16.0248L16.5515 17.4L15.1751 18.7752C15.1193 18.831 15.0751 18.8972 15.0449 18.9701C15.0147 19.043 14.9991 19.1211 14.9991 19.2C14.9991 19.2789 15.0147 19.357 15.0449 19.4299C15.0751 19.5028 15.1193 19.569 15.1751 19.6248C15.2309 19.6806 15.2971 19.7249 15.37 19.7551C15.4429 19.7852 15.521 19.8008 15.5999 19.8008C15.6788 19.8008 15.7569 19.7852 15.8298 19.7551C15.9027 19.7249 15.9689 19.6806 16.0247 19.6248L17.3999 18.2484L18.7751 19.6248C18.8309 19.6806 18.8971 19.7249 18.97 19.7551C19.0429 19.7852 19.121 19.8008 19.1999 19.8008C19.2788 19.8008 19.3569 19.7852 19.4298 19.7551C19.5027 19.7249 19.5689 19.6806 19.6247 19.6248C19.6805 19.569 19.7247 19.5028 19.7549 19.4299C19.7851 19.357 19.8007 19.2789 19.8007 19.2C19.8007 19.1211 19.7851 19.043 19.7549 18.9701C19.7247 18.8972 19.6805 18.831 19.6247 18.7752L18.2483 17.4L19.6247 16.0248Z" fill="#525760"/>
</svg>
