<svg width="14" height="14" fill="none" xmlns="http://www.w3.org/2000/svg"><path d="M10.5 6.417a.583.583 0 1 0-1.167 0 .583.583 0 0 0 1.167 0Zm-.583 1.75a.583.583 0 1 1 0 1.166.583.583 0 0 1 0-1.166Zm-1.75-1.75a.583.583 0 1 0-1.167 0 .583.583 0 0 0 1.167 0Zm-.584 1.75a.583.583 0 1 1 0 1.166.583.583 0 0 1 0-1.166Zm-1.75-1.75a.583.583 0 1 0-1.166 0 .583.583 0 0 0 1.166 0Zm7-2.334a2.917 2.917 0 0 0-2.916-2.916H4.083a2.917 2.917 0 0 0-2.916 2.916v5.834a2.917 2.917 0 0 0 2.916 2.916h5.834a2.917 2.917 0 0 0 2.916-2.916V4.083Zm-2.916-1.75a1.75 1.75 0 0 1 1.65 1.167H2.433a1.75 1.75 0 0 1 1.651-1.167h5.834ZM2.333 4.667h9.334v5.25a1.75 1.75 0 0 1-1.75 1.75H4.083a1.75 1.75 0 0 1-1.75-1.75v-5.25Z" fill="#000"/></svg>