<svg xmlns="http://www.w3.org/2000/svg" width="30" height="30" fill="none"><rect width="30" height="30" fill="#118DFF" rx="4"/><path fill="#fff" d="M19.158 6.026a.5.5 0 0 1 .317.632l-.5 1.5a.5.5 0 0 1-.95-.316l.5-1.5a.5.5 0 0 1 .633-.316Zm3.697 1.828a.5.5 0 0 0-.708-.707l-2 2a.5.5 0 0 0 .707.707l2-2h.001Zm-10.248.292a2 2 0 0 1 3.261-.515l6.587 6.98a2 2 0 0 1-.648 3.203L17.87 19.55a3.503 3.503 0 0 1-5.072 4.009 3.498 3.498 0 0 1-1.273-1.214l-1.2.529a1.5 1.5 0 0 1-1.661-.308l-1.222-1.21a1.5 1.5 0 0 1-.299-1.71l5.464-11.5Zm-.154 13.789a2.5 2.5 0 0 0 4.488-1.977l-4.488 1.977Zm2.688-13.617a1 1 0 0 0-1.63.257l-5.465 11.5a.5.5 0 0 0 .1.569l1.222 1.211a.5.5 0 0 0 .553.102L21.403 16.9a1 1 0 0 0 .325-1.601l-6.587-6.98v-.001ZM22 11a.5.5 0 1 0 0 1h1.5a.5.5 0 1 0 0-1H22Z"/></svg>