<svg width="31" height="32" viewBox="0 0 31 32" fill="none" xmlns="http://www.w3.org/2000/svg">
<g clip-path="url(#clip0_37_18660)">
<path fill-rule="evenodd" clip-rule="evenodd" d="M15.5 11.5C16.325 11.5 17 10.825 17 10C17 9.175 16.325 8.5 15.5 8.5C14.675 8.5 14 9.175 14 10C14 10.825 14.675 11.5 15.5 11.5ZM15.5 14.5C14.675 14.5 14 15.175 14 16C14 16.825 14.675 17.5 15.5 17.5C16.325 17.5 17 16.825 17 16C17 15.175 16.325 14.5 15.5 14.5ZM14 22C14 21.175 14.675 20.5 15.5 20.5C16.325 20.5 17 21.175 17 22C17 22.825 16.325 23.5 15.5 23.5C14.675 23.5 14 22.825 14 22Z" fill="#2E3555"/>
</g>
<defs>
<clipPath id="clip0_37_18660">
<rect width="15" height="15" fill="white" transform="translate(8 8.5)"/>
</clipPath>
</defs>
</svg>
