<svg width="24" height="24" viewBox="0 0 24 24" fill="none" xmlns="http://www.w3.org/2000/svg">
<g clip-path="url(#clip0_37_18792)">
<path d="M17.7238 7.11715C17.9348 6.90618 18.0533 6.62003 18.0533 6.32166C18.0533 6.02329 17.9348 5.73714 17.7238 5.52616C17.5128 5.31519 17.2267 5.19666 16.9283 5.19666C16.6299 5.19666 16.3438 5.31519 16.1328 5.52616L11.625 10.034L7.11719 5.52616C6.90622 5.31519 6.62007 5.19666 6.3217 5.19666C6.02333 5.19666 5.73718 5.31519 5.5262 5.52616C5.31523 5.73714 5.1967 6.02329 5.1967 6.32166C5.1967 6.62003 5.31523 6.90618 5.5262 7.11715L10.034 11.625L5.5262 16.1328C5.31523 16.3437 5.1967 16.6299 5.1967 16.9283C5.1967 17.2266 5.31523 17.5128 5.5262 17.7238C5.73718 17.9347 6.02333 18.0533 6.3217 18.0533C6.62007 18.0533 6.90622 17.9347 7.11719 17.7238L11.625 13.216L16.1328 17.7238C16.3438 17.9347 16.6299 18.0533 16.9283 18.0533C17.2267 18.0533 17.5128 17.9347 17.7238 17.7238C17.9348 17.5128 18.0533 17.2266 18.0533 16.9283C18.0533 16.6299 17.9348 16.3437 17.7238 16.1328L13.216 11.625L17.7238 7.11715Z" fill="#EB5757"/>
</g>
<defs>
<clipPath id="clip0_37_18792">
<rect width="24" height="24" fill="white"/>
</clipPath>
</defs>
</svg>
