<svg width="24" height="24" viewBox="0 0 24 24" fill="none" xmlns="http://www.w3.org/2000/svg">
<g clip-path="url(#clip0_16_380)">
<path d="M17.7238 7.11718C17.9348 6.90621 18.0533 6.62006 18.0533 6.32169C18.0533 6.02332 17.9348 5.73717 17.7238 5.52619C17.5128 5.31522 17.2267 5.19669 16.9283 5.19669C16.6299 5.19669 16.3438 5.31522 16.1328 5.52619L11.625 10.034L7.11719 5.52619C6.90622 5.31522 6.62007 5.19669 6.3217 5.19669C6.02333 5.19669 5.73718 5.31522 5.5262 5.52619C5.31523 5.73717 5.1967 6.02332 5.1967 6.32169C5.1967 6.62006 5.31523 6.90621 5.5262 7.11718L10.034 11.625L5.5262 16.1328C5.31523 16.3438 5.1967 16.6299 5.1967 16.9283C5.1967 17.2267 5.31523 17.5128 5.5262 17.7238C5.73718 17.9348 6.02333 18.0533 6.3217 18.0533C6.62007 18.0533 6.90622 17.9348 7.11719 17.7238L11.625 13.216L16.1328 17.7238C16.3438 17.9348 16.6299 18.0533 16.9283 18.0533C17.2267 18.0533 17.5128 17.9348 17.7238 17.7238C17.9348 17.5128 18.0533 17.2267 18.0533 16.9283C18.0533 16.6299 17.9348 16.3438 17.7238 16.1328L13.216 11.625L17.7238 7.11718Z" fill="#2E3555"/>
</g>
<defs>
<clipPath id="clip0_16_380">
<rect width="24" height="24" fill="white"/>
</clipPath>
</defs>
</svg>
