<svg xmlns="http://www.w3.org/2000/svg" width="25" height="24" fill="none"><path fill="#525760" d="M3.9 9.23a8.979 8.979 0 0 1 1.895-3.26.532.532 0 0 1 .573-.142l2.04.726a1.065 1.065 0 0 0 1.403-.807l.39-2.124a.531.531 0 0 1 .41-.423 9.108 9.108 0 0 1 3.78 0 .53.53 0 0 1 .412.423l.39 2.124a1.061 1.061 0 0 0 1.402.807l2.04-.726a.532.532 0 0 1 .573.142c.854.94 1.5 2.051 1.893 3.26a.528.528 0 0 1-.162.567l-1.653 1.396a1.054 1.054 0 0 0 0 1.614l1.653 1.396c.165.14.228.364.162.568a8.98 8.98 0 0 1-1.893 3.259.532.532 0 0 1-.573.142l-2.04-.726a1.064 1.064 0 0 0-1.402.807l-.39 2.125a.53.53 0 0 1-.413.422 9.102 9.102 0 0 1-3.778 0 .53.53 0 0 1-.413-.422l-.388-2.125a1.063 1.063 0 0 0-1.403-.806l-2.04.726a.532.532 0 0 1-.573-.143 8.979 8.979 0 0 1-1.893-3.26.528.528 0 0 1 .162-.566l1.653-1.397a1.056 1.056 0 0 0 0-1.614L4.064 9.797a.528.528 0 0 1-.162-.567h-.001ZM9.876 12a2.625 2.625 0 1 0 5.25 0 2.625 2.625 0 0 0-5.25 0Z"/></svg>